<svg width="313" height="381" viewBox="0 0 313 381" fill="none" xmlns="http://www.w3.org/2000/svg">
<path d="M1 383.39C21.3934 374.704 66.7876 355.292 85.2172 347.135C108.254 336.938 173.589 302.949 207.2 278.024C240.811 253.099 256.673 235.349 264.226 221.753C270.269 210.877 269.891 201.737 266.87 195.695C264.981 191.918 258.863 185.725 247.987 180.589C237.11 175.453 197.381 167.371 178.876 163.972C169.309 161.832 144.174 154.047 140.733 141.312C136.956 127.339 148.94 111.037 154.328 103.925C163.77 91.4619 188.672 71.6291 209.844 57.8506C233.636 42.3667 289.085 11.5744 312.5 1" stroke="#272C2D"/>
<path d="M26.6807 382.635C47.0741 373.948 67.543 366.622 85.9726 358.465C109.01 348.268 174.344 314.279 207.955 289.354C241.567 264.428 256.295 246.678 263.849 233.083C269.891 222.206 269.136 212.312 266.87 207.402C264.604 204.003 259.619 197.054 248.742 191.918C237.866 186.782 198.136 178.7 179.631 175.302C170.064 173.161 143.376 165.105 141.11 153.02C138.207 137.536 148.663 128.095 163.392 113.366C178.121 98.6374 214.651 76.0548 228.727 67.6696C246.476 57.0953 289.907 35.9465 312.566 24.9945" stroke="#272C2D"/>
<path d="M54.249 382.257C74.6424 373.571 109.346 359.248 127.137 349.778C150.551 337.316 188.778 314.888 221.928 289.354C249.875 267.827 260.071 253.476 267.625 239.881C273.667 229.004 271.023 220.243 269.135 216.466C266.68 211.556 258.561 205.514 249.119 201.36C240.536 197.583 198.891 188.142 180.386 184.743C170.819 182.603 145.264 174.924 142.998 162.839C140.095 147.355 162.259 129.983 175.477 120.541C188.694 111.1 223.456 90.7425 238.167 83.5312C257.428 74.0898 290.284 58.6059 312.943 47.6539" stroke="#272C2D"/>
<path d="M82.196 382.257C102.589 373.571 127.096 360.759 144.887 351.289C168.302 338.826 198.424 320.998 230.615 294.263C252.896 275.758 261.583 264.806 269.136 251.21C275.178 240.334 272.535 231.572 270.646 227.796C268.192 222.886 259.694 216.088 250.253 211.934C241.67 208.158 200.402 199.094 181.897 195.695C172.33 193.555 147.153 185.876 144.887 173.791C141.984 158.307 166.413 144.711 179.631 135.27C192.849 125.829 225.345 110.381 240.056 103.169C259.317 93.7279 289.907 80.8876 312.566 69.9355" stroke="#272C2D"/>
<path d="M107.499 382.635C127.892 373.948 137.293 366.801 155.084 357.332C178.498 344.869 202.201 330.817 234.391 304.082C256.673 285.577 265.359 274.625 272.912 261.029C278.955 250.153 276.311 241.391 274.423 237.615C271.968 232.705 263.471 225.907 254.029 221.753C245.446 217.977 204.179 208.913 185.674 205.514C176.106 203.374 150.929 195.695 148.664 183.61C145.76 168.126 173.966 154.153 189.828 146.222C205.69 138.291 229.122 128.508 243.833 121.297C263.093 111.855 289.151 101.659 312.188 92.5949" stroke="#272C2D"/>
<g filter="url(#filter0_d_285_116)">
<path fill-rule="evenodd" clip-rule="evenodd" d="M261.829 110.885C263.021 110.223 265.546 108.656 266.108 107.684C266.252 107.435 266.459 107.154 266.693 106.838C267.601 105.609 268.913 103.833 268.487 101.224C267.95 97.9434 265.839 96.4543 264.304 95.8382C262.769 95.2221 257.08 95.719 253.143 100.198C249.994 103.782 249.834 107.021 250.148 108.193C250.493 111.183 253.3 117.143 261.772 117.064C272.362 116.967 276.299 112.487 279.277 108.264C282.255 104.042 282.928 96.3273 282.602 91.2776C282.342 87.2378 281.934 84.9497 281.763 84.3107C283.984 82.8022 288.306 78.3109 287.822 72.4133C287.216 65.0413 282.822 61.4241 280.797 60.2545C278.771 59.085 276.511 58.3206 275.148 58.3435C274.057 58.3619 273.571 58.4235 273.464 58.4521L269.891 46.3957C272.212 44.4042 277.417 38.6944 279.676 31.7877C281.935 24.881 281.099 16.2237 280.399 12.7583C280.056 11.4802 278.566 8.72895 275.343 7.94866C272.12 7.16836 267.568 10.032 265.695 11.5613C264.744 12.2728 262.523 14.8083 261.25 19.259C259.659 24.8225 259.602 31.002 259.968 33.6438C260.078 34.4437 260.185 35.4643 260.302 36.5785C260.571 39.1442 260.892 42.2061 261.429 44.2111L262.714 49.004C260.947 50.5048 257.209 53.7666 256.392 54.8074C256.127 55.1443 255.588 55.7387 254.906 56.4894L254.906 56.4895L254.906 56.4895C252.954 58.6381 249.84 62.0671 248.69 64.4055C247.138 67.561 246.14 70.2258 246.357 73.5923C246.579 77.0387 249.861 81.5574 251.738 83.4517C253.616 85.3459 257.199 88.4952 261.633 89.7045C265.18 90.6719 270.966 89.601 273.416 88.9446L274.694 88.6021C275.236 90.6258 276.194 95.7344 275.688 99.9797C275.055 105.286 274.376 107.865 273.674 109.081C273.113 110.053 271.898 111.315 270.706 111.977C269.194 112.725 267.529 112.988 266.114 112.819C264.699 112.65 262.668 111.459 261.829 110.885ZM280.222 78.5592C279.737 76.7486 278.6 72.761 277.933 71.2958C277.267 69.8306 275.42 65.1431 275 64C275.753 64.2548 278.556 68.2522 279.702 71.5067C280.848 74.7613 280.469 77.3515 280.222 78.5592ZM270.927 74.543C271.525 75.7526 273.387 82.4455 274.243 85.6408C273.604 85.812 271.844 86.1465 269.918 86.1147C267.51 86.075 262.093 82.475 259.96 80.9061C259.107 80.2785 255.715 76.5642 254.71 74.0936C253.449 70.9928 253.107 69.3864 253.403 67.937C253.474 67.3474 254.001 65.3111 255.548 61.8829C257.095 58.4546 261.385 54.2687 263.336 52.6043L265.71 60.1873C264.411 60.8778 261.324 62.7325 259.366 64.6271C256.918 66.9953 256.348 71.2576 256.628 73.5799C256.907 75.9022 258.956 78.4355 260.577 79.3711C262.197 80.3067 264.052 80.8372 265.096 80.8999C265.917 80.9492 266.777 80.3529 267.955 79.5354C268.276 79.3132 268.62 79.0747 268.993 78.8283C270.39 77.9061 270.567 77.0365 270.482 76.717C269.999 76.6181 268.87 76.3268 268.222 75.9526C268.16 75.9164 268.083 75.8757 267.996 75.8289C266.951 75.27 264.286 73.844 263.611 68.9689C263.027 64.742 265.222 63.3425 266.5 63C267.655 66.4577 270.329 73.3334 270.927 74.543ZM268.778 42.2419C267.73 38.7557 265.849 30.2871 266.711 24.3026C267.574 18.3182 269.078 13.9651 269.723 12.5367C270.469 12.3369 272.2 12.832 273.158 16.4107C274.117 19.9894 274.007 25.544 273.833 27.8739C273.601 29.9908 272.874 34.7747 271.819 36.975C270.765 39.1753 269.353 41.4031 268.778 42.2419Z" fill="#6FD3D6"/>
</g>
<g filter="url(#filter1_d_285_116)">
<path fill-rule="evenodd" clip-rule="evenodd" d="M122.823 169.824C126.737 167.866 130.163 170.231 131.386 171.659C132.287 169.76 133.428 167.17 134.61 164.486C137.174 158.666 139.933 152.402 140.867 151.779C142.658 150.585 144.45 150.848 145.388 151.999L159.993 165.459C161.083 166.358 162.197 167.548 161.97 168.906L156.771 179.611C156.323 180.628 155.609 182.15 154.85 183.767C153.708 186.199 152.465 188.845 151.878 190.315C150.899 192.762 148.615 194.189 147.596 194.597C146.882 194.903 144.721 195.514 141.785 195.514C138.849 195.514 136.891 192.864 136.28 191.538C135.872 190.009 136.035 186.461 139.95 184.504C143.865 182.547 148.361 184.337 149.431 184.81C150.298 182.984 151.391 180.315 152.53 177.511L139.535 164.516L139.338 164.93C138.217 167.479 135.729 173.188 134.75 175.635C133.772 178.081 131.488 179.509 130.469 179.916C129.755 180.222 127.594 180.834 124.658 180.834C121.721 180.834 119.764 178.183 119.152 176.858C118.745 175.329 118.908 171.781 122.823 169.824ZM143.846 194.124C145.803 193.635 147.72 189.842 148.434 188.007C147.21 187.293 144.458 185.866 143.234 185.866C141.774 185.866 141.429 187.26 141.135 188.451L141.093 188.619C140.788 189.842 141.399 194.736 143.846 194.124ZM129.166 177.303C129.064 177.405 128.799 177.486 128.555 176.997C128.446 176.779 128.414 176.483 128.378 176.138C128.311 175.514 128.228 174.726 127.637 173.938C126.903 172.96 125.7 172.103 125.19 171.797C124.477 172.409 123.639 174.087 123.967 176.385C124.273 178.526 125.496 179.443 126.108 179.749C126.719 180.055 129.166 177.608 129.166 177.303Z" fill="#8CE4AB"/>
</g>
<g filter="url(#filter2_d_285_116)">
<path fill-rule="evenodd" clip-rule="evenodd" d="M81.9324 342.876C83.79 341.986 87.2649 339.031 86.3034 334.332C85.3419 329.633 81.633 328.455 79.8987 328.452C78.3225 328.724 74.9618 330.044 74.1291 333.152C73.2964 336.259 73.3308 338.721 73.4522 339.563C73.5947 340.757 74.4577 343.579 76.7699 345.309C79.0821 347.039 84.4193 351.291 86.799 353.201L87.1817 353.527L69.7418 363.596C67.097 361.595 64.5821 359.681 62.8949 358.245C63.6989 357.247 66.8691 352.996 65.9075 348.297C64.946 343.598 61.2371 342.419 59.5029 342.417C57.9266 342.689 54.5659 344.009 53.7332 347.116C52.9005 350.224 52.935 352.685 53.0563 353.527C53.1988 354.722 54.0618 357.544 56.374 359.274C57.7628 360.313 60.2116 362.378 62.4616 364.276L62.4619 364.277L62.4622 364.277L62.4624 364.277C63.9582 365.539 65.3661 366.727 66.3163 367.489L76.1719 376.028C77.545 376.653 79.1209 375.812 80.3816 374.913L98.7709 363.271C100.255 362.605 101.041 360.784 100.285 358.549C99.8908 357.383 94.0434 352.687 88.6102 348.323L88.6102 348.323C86.1042 346.31 83.6864 344.368 81.9324 342.876ZM73.1824 365.618L78.6822 370.495C79.8166 370.477 81.1212 370.001 82.0544 369.66C82.2148 369.602 82.3643 369.547 82.5 369.5C84.2039 368.904 86.5031 367.466 90 365C92.7976 363.027 94.1032 362.338 96.3746 361.623L89.0415 355.12L80.8473 360.298L73.1824 365.618Z" fill="#41B9BF"/>
</g>
<g filter="url(#filter3_d_285_116)">
<path d="M293.094 89.3569C294.447 86.8708 297.428 86.1962 298.605 86.501C297.895 82.2543 296.156 71.9758 297.105 71.501C298.105 71.001 298.316 70.7632 299.605 70.501L300.883 80.501C301.23 82.2679 301.571 86.501 301.571 88.0292C301.571 89.7334 301.273 91.2909 300.883 91.8842C300.617 92.3104 299.697 93.4341 298.139 94.5199C296.581 95.6056 294.562 94.9231 293.748 94.4462C292.966 93.7857 291.741 91.8431 293.094 89.3569Z" fill="#8CE4AB"/>
</g>
<g filter="url(#filter4_d_285_116)">
<path d="M178.094 90.3569C179.447 87.8708 182.428 87.1962 183.605 87.501C182.895 83.2543 181.156 72.9758 182.105 72.501C183.105 72.001 183.316 71.7632 184.605 71.501L185.883 81.501C186.23 83.2679 186.571 87.501 186.571 89.0292C186.571 90.7334 186.273 92.2909 185.883 92.8842C185.617 93.3104 184.697 94.4341 183.139 95.5199C181.581 96.6056 179.562 95.9231 178.748 95.4462C177.966 94.7857 176.741 92.8431 178.094 90.3569Z" fill="#41B9BF"/>
</g>
<g filter="url(#filter5_d_285_116)">
<path d="M181.937 320.142C182.107 317.316 184.52 315.44 185.715 315.216C183.269 311.672 177.33 303.105 177.988 302.272C178.681 301.395 178.771 301.09 179.827 300.305L185.229 308.817C186.294 310.269 188.4 313.957 189.049 315.34C189.772 316.883 190.164 318.42 190.062 319.123C190.003 319.622 189.647 321.03 188.697 322.674C187.748 324.319 185.63 324.558 184.69 324.472C183.702 324.206 181.768 322.967 181.937 320.142Z" fill="#8CE4AB"/>
</g>
<g filter="url(#filter6_d_285_116)">
<path d="M225.319 280.763C226.879 278.401 229.907 277.982 231.053 278.386C230.707 274.094 229.848 263.705 230.834 263.313C231.873 262.9 232.103 262.68 233.41 262.529L233.833 272.601C234.029 274.391 234.008 278.638 233.879 280.161C233.734 281.859 233.304 283.385 232.865 283.943C232.564 284.345 231.552 285.387 229.907 286.336C228.263 287.286 226.309 286.434 225.538 285.889C224.815 285.165 223.76 283.125 225.319 280.763Z" fill="#41B9BF"/>
</g>
<g filter="url(#filter7_d_285_116)">
<path fill-rule="evenodd" clip-rule="evenodd" d="M235.5 183.714C239.642 183.714 243 181.316 243 178.357C243 175.398 239.642 173 235.5 173C231.358 173 228 175.398 228 178.357C228 181.316 231.358 183.714 235.5 183.714ZM234.037 181.811C236.921 182.584 239.481 182.303 240.033 180.243C240.585 178.183 238.92 175.123 236.036 174.35C233.151 173.577 231.049 174.817 230.497 176.877C229.945 178.938 231.152 181.038 234.037 181.811Z" fill="#41B9BF"/>
</g>
<g filter="url(#filter8_d_285_116)">
<path fill-rule="evenodd" clip-rule="evenodd" d="M222.852 89.0288C226.44 86.9578 228.148 83.2017 226.669 80.6394C225.19 78.0771 221.082 77.6789 217.495 79.75C213.908 81.8211 212.199 85.5771 213.679 88.1394C215.158 90.7017 219.265 91.0999 222.852 89.0288ZM220.633 88.112C223.518 87.3392 225.594 85.8162 225.042 83.7561C224.49 81.6959 221.518 79.8786 218.634 80.6515C215.75 81.4243 214.549 83.5492 215.101 85.6093C215.653 87.6695 217.749 88.8849 220.633 88.112Z" fill="#8CE4AB"/>
</g>
<g filter="url(#filter9_d_285_116)">
<circle cx="214.5" cy="208.5" r="2.5" fill="#41B9BF"/>
<circle cx="205" cy="215" r="3" fill="#41B9BF"/>
<circle cx="207.5" cy="197.5" r="1.5" fill="#41B9BF"/>
</g>
<g filter="url(#filter10_d_285_116)">
<circle cx="130.415" cy="338.477" r="2.5" transform="rotate(-150 130.415 338.477)" fill="#41B9BF"/>
<circle cx="141.892" cy="337.598" r="3" transform="rotate(-150 141.892 337.598)" fill="#41B9BF"/>
<circle cx="130.977" cy="351.504" r="1.5" transform="rotate(-150 130.977 351.504)" fill="#41B9BF"/>
</g>
<g filter="url(#filter11_d_285_116)">
<circle cx="207.5" cy="113.5" r="2.5" transform="rotate(-90 207.5 113.5)" fill="#41B9BF"/>
<circle cx="214" cy="123" r="3" transform="rotate(-90 214 123)" fill="#41B9BF"/>
<circle cx="196.5" cy="120.5" r="1.5" transform="rotate(-90 196.5 120.5)" fill="#41B9BF"/>
</g>
<g filter="url(#filter12_d_285_116)">
<path fill-rule="evenodd" clip-rule="evenodd" d="M280.01 260.881C279.116 263.344 275.983 265.163 272.255 265.163C267.83 265.163 264.243 262.601 264.243 259.441C264.243 258.957 264.327 258.487 264.486 258.039L260.171 257.249L262.265 256.688L264.934 257.112C266.183 255.112 268.991 253.718 272.255 253.718C276.68 253.718 280.266 256.28 280.266 259.441C280.266 259.477 280.266 259.513 280.265 259.549L283.362 260.042L281.805 261.21L280.01 260.881ZM277.204 260.367C277.223 260.747 277.188 261.114 277.097 261.455C276.507 263.656 273.772 263.955 270.692 263.13C267.891 262.38 266.571 260.458 266.796 258.462L277.204 260.367ZM276.934 259.02L267.044 257.448C267.792 255.498 269.944 254.388 272.827 255.16C274.877 255.71 276.351 257.341 276.934 259.02Z" fill="#8CE4AB"/>
</g>
<defs>
<filter id="filter0_d_285_116" x="242.327" y="7.81644" width="49.5322" height="117.249" filterUnits="userSpaceOnUse" color-interpolation-filters="sRGB">
<feFlood flood-opacity="0" result="BackgroundImageFix"/>
<feColorMatrix in="SourceAlpha" type="matrix" values="0 0 0 0 0 0 0 0 0 0 0 0 0 0 0 0 0 0 127 0" result="hardAlpha"/>
<feOffset dy="4"/>
<feGaussianBlur stdDeviation="2"/>
<feComposite in2="hardAlpha" operator="out"/>
<feColorMatrix type="matrix" values="0 0 0 0 0 0 0 0 0 0 0 0 0 0 0 0 0 0 0.25 0"/>
<feBlend mode="normal" in2="BackgroundImageFix" result="effect1_dropShadow_285_116"/>
<feBlend mode="normal" in="SourceGraphic" in2="effect1_dropShadow_285_116" result="shape"/>
</filter>
<filter id="filter1_d_285_116" x="115" y="151" width="51" height="52.5144" filterUnits="userSpaceOnUse" color-interpolation-filters="sRGB">
<feFlood flood-opacity="0" result="BackgroundImageFix"/>
<feColorMatrix in="SourceAlpha" type="matrix" values="0 0 0 0 0 0 0 0 0 0 0 0 0 0 0 0 0 0 127 0" result="hardAlpha"/>
<feOffset dy="4"/>
<feGaussianBlur stdDeviation="2"/>
<feComposite in2="hardAlpha" operator="out"/>
<feColorMatrix type="matrix" values="0 0 0 0 0 0 0 0 0 0 0 0 0 0 0 0 0 0 0.25 0"/>
<feBlend mode="normal" in2="BackgroundImageFix" result="effect1_dropShadow_285_116"/>
<feBlend mode="normal" in="SourceGraphic" in2="effect1_dropShadow_285_116" result="shape"/>
</filter>
<filter id="filter2_d_285_116" x="48.9917" y="328.452" width="55.5852" height="55.7918" filterUnits="userSpaceOnUse" color-interpolation-filters="sRGB">
<feFlood flood-opacity="0" result="BackgroundImageFix"/>
<feColorMatrix in="SourceAlpha" type="matrix" values="0 0 0 0 0 0 0 0 0 0 0 0 0 0 0 0 0 0 127 0" result="hardAlpha"/>
<feOffset dy="4"/>
<feGaussianBlur stdDeviation="2"/>
<feComposite in2="hardAlpha" operator="out"/>
<feColorMatrix type="matrix" values="0 0 0 0 0 0 0 0 0 0 0 0 0 0 0 0 0 0 0.25 0"/>
<feBlend mode="normal" in2="BackgroundImageFix" result="effect1_dropShadow_285_116"/>
<feBlend mode="normal" in="SourceGraphic" in2="effect1_dropShadow_285_116" result="shape"/>
</filter>
<filter id="filter3_d_285_116" x="288.488" y="70.501" width="17.083" height="32.5994" filterUnits="userSpaceOnUse" color-interpolation-filters="sRGB">
<feFlood flood-opacity="0" result="BackgroundImageFix"/>
<feColorMatrix in="SourceAlpha" type="matrix" values="0 0 0 0 0 0 0 0 0 0 0 0 0 0 0 0 0 0 127 0" result="hardAlpha"/>
<feOffset dy="4"/>
<feGaussianBlur stdDeviation="2"/>
<feComposite in2="hardAlpha" operator="out"/>
<feColorMatrix type="matrix" values="0 0 0 0 0 0 0 0 0 0 0 0 0 0 0 0 0 0 0.25 0"/>
<feBlend mode="normal" in2="BackgroundImageFix" result="effect1_dropShadow_285_116"/>
<feBlend mode="normal" in="SourceGraphic" in2="effect1_dropShadow_285_116" result="shape"/>
</filter>
<filter id="filter4_d_285_116" x="173.488" y="71.501" width="17.083" height="32.5994" filterUnits="userSpaceOnUse" color-interpolation-filters="sRGB">
<feFlood flood-opacity="0" result="BackgroundImageFix"/>
<feColorMatrix in="SourceAlpha" type="matrix" values="0 0 0 0 0 0 0 0 0 0 0 0 0 0 0 0 0 0 127 0" result="hardAlpha"/>
<feOffset dy="4"/>
<feGaussianBlur stdDeviation="2"/>
<feComposite in2="hardAlpha" operator="out"/>
<feColorMatrix type="matrix" values="0 0 0 0 0 0 0 0 0 0 0 0 0 0 0 0 0 0 0.25 0"/>
<feBlend mode="normal" in2="BackgroundImageFix" result="effect1_dropShadow_285_116"/>
<feBlend mode="normal" in="SourceGraphic" in2="effect1_dropShadow_285_116" result="shape"/>
</filter>
<filter id="filter5_d_285_116" x="173.938" y="300.305" width="20.1406" height="32.1816" filterUnits="userSpaceOnUse" color-interpolation-filters="sRGB">
<feFlood flood-opacity="0" result="BackgroundImageFix"/>
<feColorMatrix in="SourceAlpha" type="matrix" values="0 0 0 0 0 0 0 0 0 0 0 0 0 0 0 0 0 0 127 0" result="hardAlpha"/>
<feOffset dy="4"/>
<feGaussianBlur stdDeviation="2"/>
<feComposite in2="hardAlpha" operator="out"/>
<feColorMatrix type="matrix" values="0 0 0 0 0 0 0 0 0 0 0 0 0 0 0 0 0 0 0.25 0"/>
<feBlend mode="normal" in2="BackgroundImageFix" result="effect1_dropShadow_285_116"/>
<feBlend mode="normal" in="SourceGraphic" in2="effect1_dropShadow_285_116" result="shape"/>
</filter>
<filter id="filter6_d_285_116" x="220.512" y="262.529" width="17.4656" height="32.2346" filterUnits="userSpaceOnUse" color-interpolation-filters="sRGB">
<feFlood flood-opacity="0" result="BackgroundImageFix"/>
<feColorMatrix in="SourceAlpha" type="matrix" values="0 0 0 0 0 0 0 0 0 0 0 0 0 0 0 0 0 0 127 0" result="hardAlpha"/>
<feOffset dy="4"/>
<feGaussianBlur stdDeviation="2"/>
<feComposite in2="hardAlpha" operator="out"/>
<feColorMatrix type="matrix" values="0 0 0 0 0 0 0 0 0 0 0 0 0 0 0 0 0 0 0.25 0"/>
<feBlend mode="normal" in2="BackgroundImageFix" result="effect1_dropShadow_285_116"/>
<feBlend mode="normal" in="SourceGraphic" in2="effect1_dropShadow_285_116" result="shape"/>
</filter>
<filter id="filter7_d_285_116" x="224" y="173" width="23" height="18.7143" filterUnits="userSpaceOnUse" color-interpolation-filters="sRGB">
<feFlood flood-opacity="0" result="BackgroundImageFix"/>
<feColorMatrix in="SourceAlpha" type="matrix" values="0 0 0 0 0 0 0 0 0 0 0 0 0 0 0 0 0 0 127 0" result="hardAlpha"/>
<feOffset dy="4"/>
<feGaussianBlur stdDeviation="2"/>
<feComposite in2="hardAlpha" operator="out"/>
<feColorMatrix type="matrix" values="0 0 0 0 0 0 0 0 0 0 0 0 0 0 0 0 0 0 0.25 0"/>
<feBlend mode="normal" in2="BackgroundImageFix" result="effect1_dropShadow_285_116"/>
<feBlend mode="normal" in="SourceGraphic" in2="effect1_dropShadow_285_116" result="shape"/>
</filter>
<filter id="filter8_d_285_116" x="209.146" y="78.4238" width="22.0554" height="19.9313" filterUnits="userSpaceOnUse" color-interpolation-filters="sRGB">
<feFlood flood-opacity="0" result="BackgroundImageFix"/>
<feColorMatrix in="SourceAlpha" type="matrix" values="0 0 0 0 0 0 0 0 0 0 0 0 0 0 0 0 0 0 127 0" result="hardAlpha"/>
<feOffset dy="4"/>
<feGaussianBlur stdDeviation="2"/>
<feComposite in2="hardAlpha" operator="out"/>
<feColorMatrix type="matrix" values="0 0 0 0 0 0 0 0 0 0 0 0 0 0 0 0 0 0 0.25 0"/>
<feBlend mode="normal" in2="BackgroundImageFix" result="effect1_dropShadow_285_116"/>
<feBlend mode="normal" in="SourceGraphic" in2="effect1_dropShadow_285_116" result="shape"/>
</filter>
<filter id="filter9_d_285_116" x="198" y="196" width="23" height="30" filterUnits="userSpaceOnUse" color-interpolation-filters="sRGB">
<feFlood flood-opacity="0" result="BackgroundImageFix"/>
<feColorMatrix in="SourceAlpha" type="matrix" values="0 0 0 0 0 0 0 0 0 0 0 0 0 0 0 0 0 0 127 0" result="hardAlpha"/>
<feOffset dy="4"/>
<feGaussianBlur stdDeviation="2"/>
<feComposite in2="hardAlpha" operator="out"/>
<feColorMatrix type="matrix" values="0 0 0 0 0 0 0 0 0 0 0 0 0 0 0 0 0 0 0.25 0"/>
<feBlend mode="normal" in2="BackgroundImageFix" result="effect1_dropShadow_285_116"/>
<feBlend mode="normal" in="SourceGraphic" in2="effect1_dropShadow_285_116" result="shape"/>
</filter>
<filter id="filter10_d_285_116" x="123.915" y="334.598" width="24.978" height="26.4062" filterUnits="userSpaceOnUse" color-interpolation-filters="sRGB">
<feFlood flood-opacity="0" result="BackgroundImageFix"/>
<feColorMatrix in="SourceAlpha" type="matrix" values="0 0 0 0 0 0 0 0 0 0 0 0 0 0 0 0 0 0 127 0" result="hardAlpha"/>
<feOffset dy="4"/>
<feGaussianBlur stdDeviation="2"/>
<feComposite in2="hardAlpha" operator="out"/>
<feColorMatrix type="matrix" values="0 0 0 0 0 0 0 0 0 0 0 0 0 0 0 0 0 0 0.25 0"/>
<feBlend mode="normal" in2="BackgroundImageFix" result="effect1_dropShadow_285_116"/>
<feBlend mode="normal" in="SourceGraphic" in2="effect1_dropShadow_285_116" result="shape"/>
</filter>
<filter id="filter11_d_285_116" x="191" y="111" width="30" height="23" filterUnits="userSpaceOnUse" color-interpolation-filters="sRGB">
<feFlood flood-opacity="0" result="BackgroundImageFix"/>
<feColorMatrix in="SourceAlpha" type="matrix" values="0 0 0 0 0 0 0 0 0 0 0 0 0 0 0 0 0 0 127 0" result="hardAlpha"/>
<feOffset dy="4"/>
<feGaussianBlur stdDeviation="2"/>
<feComposite in2="hardAlpha" operator="out"/>
<feColorMatrix type="matrix" values="0 0 0 0 0 0 0 0 0 0 0 0 0 0 0 0 0 0 0.25 0"/>
<feBlend mode="normal" in2="BackgroundImageFix" result="effect1_dropShadow_285_116"/>
<feBlend mode="normal" in="SourceGraphic" in2="effect1_dropShadow_285_116" result="shape"/>
</filter>
<filter id="filter12_d_285_116" x="256.171" y="253.718" width="31.1914" height="19.4451" filterUnits="userSpaceOnUse" color-interpolation-filters="sRGB">
<feFlood flood-opacity="0" result="BackgroundImageFix"/>
<feColorMatrix in="SourceAlpha" type="matrix" values="0 0 0 0 0 0 0 0 0 0 0 0 0 0 0 0 0 0 127 0" result="hardAlpha"/>
<feOffset dy="4"/>
<feGaussianBlur stdDeviation="2"/>
<feComposite in2="hardAlpha" operator="out"/>
<feColorMatrix type="matrix" values="0 0 0 0 0 0 0 0 0 0 0 0 0 0 0 0 0 0 0.25 0"/>
<feBlend mode="normal" in2="BackgroundImageFix" result="effect1_dropShadow_285_116"/>
<feBlend mode="normal" in="SourceGraphic" in2="effect1_dropShadow_285_116" result="shape"/>
</filter>
</defs>
</svg>
