<svg width="78" height="142" viewBox="0 0 78 142" fill="none" xmlns="http://www.w3.org/2000/svg">
<path d="M39.4906 109.064V0H43.12C43.4499 4.27059 44.5057 13.4688 46.0895 16.0968C48.0691 19.3819 51.9498 25.8894 53.6781 27.2661C55.3278 28.5801 70.3407 46.4296 71.495 47.962C72.4848 49.276 76.7741 59.7882 77.434 62.4163C78.9565 68.4799 77.104 82.4552 75.4543 86.3973C73.7518 90.4656 71.825 96.581 69.1854 99.2091C67.3881 100.999 67.2058 100.195 67.2058 100.195C67.2058 100.195 67.0958 99.8661 67.2058 99.2091C71.1651 88.3683 77.7639 77.1991 70.1752 58.8027C64.1043 44.0856 49.4989 38.2163 43.12 38.1068C43.01 63.0733 42.5261 114.912 42.79 121.219C43.12 129.103 29.2624 140.929 17.3845 141.915C5.50659 142.9 1.54729 135.016 0.887407 134.031C0.227523 133.045 -3.73178 121.219 12.7653 111.692C25.963 104.071 36.0812 106.765 39.4906 109.064Z" fill="white"/>
</svg>
