<svg width="22" height="20" viewBox="0 0 22 20" fill="none" xmlns="http://www.w3.org/2000/svg">
<path d="M3.36886 10.4728L0.0285767 13.8667V9.98792C0.0285767 9.98792 0.00834954 8.33943 0.225064 6.88488C0.618039 4.24729 3.46711 3.10304 4.94076 3.10304H15.1581V0L20.4632 4.75153L15.1581 9.4061V6.40003C12.178 6.43235 5.72671 6.40003 4.94076 6.497C4.05657 6.60609 3.36886 7.85458 3.36886 8.4364V10.4728Z" fill="white"/>
<path d="M17.7469 9.69189L21.1642 6.56844C21.2293 6.96652 21.1642 10.8862 21.1642 11.8967C21.1642 15.2071 17.454 16.8575 16.4776 16.7656H6.128V19.7053L0.757935 15.112L6.128 10.5187L6.22564 13.5503C9.05712 13.5503 14.7787 13.6789 15.7941 13.4584C16.8095 13.2379 17.6492 12.4479 17.7469 11.713V9.69189Z" fill="white"/>
</svg>
