<svg width="16" height="16" viewBox="0 0 16 16" fill="none" xmlns="http://www.w3.org/2000/svg">
<path fill-rule="evenodd" clip-rule="evenodd" d="M1.42233 6.76583C2.879 6.06227 4.15358 6.9124 4.60879 7.42541C4.94406 6.74299 5.36854 5.81205 5.80849 4.84718L5.80849 4.84717C6.76233 2.75526 7.78889 0.50388 8.13664 0.279929C8.80359 -0.149577 9.47053 -0.0546778 9.81932 0.359737L15.2499 5.19411C15.6566 5.51759 16.0736 5.94654 15.9891 6.43604L14.0545 10.2836C13.8878 10.6494 13.622 11.1964 13.3396 11.7775L13.3396 11.7776C12.9147 12.6516 12.4524 13.6029 12.2336 14.1312C11.8695 15.0106 11.0198 15.5236 10.6404 15.6702C10.3749 15.7801 9.57067 16 8.47817 16C7.38567 16 6.65735 15.0473 6.42975 14.5709C6.27801 14.0212 6.33871 12.7461 7.79538 12.0425C9.25205 11.3389 10.9251 11.9824 11.3232 12.1524C11.6457 11.496 12.0525 10.5368 12.4764 9.52905L7.64098 4.85814L7.56763 5.00694C7.15036 5.92303 6.22476 7.97507 5.8606 8.85451C5.49643 9.73396 4.6467 10.247 4.26736 10.3935C4.00183 10.5035 3.19762 10.7233 2.10512 10.7233C1.01262 10.7233 0.284298 9.7706 0.0567002 9.29423C-0.0950362 8.74458 -0.0343416 7.46938 1.42233 6.76583Z" fill="#34A0A4"/>
</svg>
