<svg width="23" height="19" viewBox="0 0 23 19" fill="none" xmlns="http://www.w3.org/2000/svg">
<path d="M5.5183 12.9389H2.1183C1.93452 12.9389 1.92638 12.91 1.56695 13.034C1.29127 13.1291 0.923706 13.4705 0.923706 13.795V16.0781C0.923706 16.6108 1.53632 16.744 1.84262 16.744C3.37415 16.7757 6.58424 16.8201 7.17235 16.744C7.76046 16.6679 8.76514 15.3171 9.19397 14.6512C10.7255 12.4632 13.6967 7.89707 13.9723 7.51655C14.2513 7.1315 14.4012 6.88237 14.5237 6.85066H17.0967V8.94348V9.22887C17.0967 9.70451 17.5255 9.60938 17.648 9.51425C18.9958 8.18245 21.7464 5.46178 21.9669 5.23347C22.1875 5.00516 22.0588 4.75783 21.9669 4.6627C20.5886 3.2992 17.648 0.286779 17.3723 0.0965439C17.0304 -0.139426 16.9129 0.0965122 16.9129 0.381929V3.04552H13.5129C13.0718 3.04552 12.4102 3.74313 12.1345 4.09194C10.1435 6.81895 6.12478 12.3301 5.97776 12.5584C5.83073 12.7867 5.61019 12.9072 5.5183 12.9389Z" fill="white"/>
<path d="M6.91051 2.91931H1.65492C1.34914 2.92482 1.04973 3.43857 0.986029 3.64914C0.922324 4.1661 0.85225 5.34599 1.08158 5.92985C1.31092 6.51371 1.94159 6.59886 2.22826 6.56845C3.37493 6.56845 5.66828 6.56845 6.24162 6.65968C6.52828 6.70529 7.73866 7.66319 8.15274 8.0281L9.68164 5.65616C9.49052 5.47371 8.91719 4.83511 8.4394 4.28774C7.93555 3.71049 7.29273 3.10177 6.91051 2.91931Z" fill="white"/>
<path d="M14.635 12.682C14.0079 12.682 13.4406 11.4265 13.2913 10.8446L11.1414 13.7844C11.4698 14.0907 12.2092 14.9714 12.5746 15.3462C12.933 15.7137 13.56 16.3567 14.0079 16.4486H17.1432V18.7453C17.1432 19.0393 17.4418 18.9903 17.5911 18.9291C18.8751 17.7348 21.5326 15.2727 21.8909 14.9787C22.2492 14.6847 22.0402 14.3663 21.8909 14.2438C20.5771 13.0189 17.8778 10.5139 17.5911 10.2934C17.3044 10.0729 17.1731 10.3853 17.1432 10.569V12.682H14.635Z" fill="white"/>
</svg>
